<svg width="500" height="500" xmlns="http://www.w3.org/2000/svg">

 <g>
  <title>background</title>
  <rect fill="none" id="canvas_background" height="402" width="582" y="-1" x="-1"/>
 </g>
 <g>
  <title>Layer 1</title>
  <path stroke="null" id="svg_1" fill-rule="evenodd" fill="#08088a" d="m0.270545,458.202476c0,22.999636 18.630644,41.627989 41.627989,41.627989l416.303944,0c22.999636,0 41.627989,-18.628353 41.627989,-41.627989l0,-416.303944c0,-22.99849 -18.628353,-41.627989 -41.627989,-41.627989l-416.302798,0c-22.99849,0 -41.627989,18.630644 -41.627989,41.627989l0,416.303944l-0.001146,0zm260.188676,-20.817431l0,-166.518828l-41.63028,0l0,-62.446565l41.63028,0c0,-107.301468 4.574039,-114.481551 135.298982,-114.481551l0,62.44542c-68.901538,0 -62.446565,3.851219 -62.446565,52.037277l62.446565,0l0,62.446565l-62.446565,0l0,166.518828l-72.852417,0l0,-0.001146z" clip-rule="evenodd"/>
 </g>
</svg>