<svg width="430.09999999999997" height="430.09999999999997" xmlns="http://www.w3.org/2000/svg">

 <g>
  <title>background</title>
  <rect fill="none" id="canvas_background" height="402" width="582" y="-1" x="-1"/>
 </g>
 <g>
  <title>Layer 1</title>
  <path fill="#08088a" id="LinkedIn__x28_alt_x29_" d="m398.4,0l-366.6,0c-17.6,0 -31.8,13.8 -31.8,30.8l0,368.5c0,17 14.2,30.8 31.8,30.8l366.6,0c17.5,0 31.8,-13.8 31.8,-30.8l0,-368.5c-0.1,-17 -14.3,-30.8 -31.8,-30.8zm-268,360l-65,0l0,-194.2l65,0l0,194.2zm-32.5,-220.7l-0.4,0c-21.8,0 -35.9,-14.9 -35.9,-33.6c0,-19 14.5,-33.5 36.8,-33.5c22.2,0 35.9,14.5 36.3,33.5c0,18.7 -14.1,33.6 -36.8,33.6zm266.8,220.7l-65,0l0,-103.9c0,-26.1 -9.4,-43.9 -32.9,-43.9c-18,0 -28.6,12 -33.3,23.6c-1.7,4.1 -2.2,9.9 -2.2,15.7l0,108.5l-65,0c0,0 0.9,-176 0,-194.2l65,0l0,27.5c8.6,-13.2 24,-32.1 58.5,-32.1c42.8,0 74.8,27.7 74.8,87.4l0.1,111.4l0,0zm-133.8,-166c0.1,-0.2 0.3,-0.4 0.4,-0.6l0,0.6l-0.4,0z"/>
 </g>
</svg>